# xmcd
#
# Track frame offsets:
#	225
#	13549
#	29821
#	46150
#	66857
#	81039
#	94760
#	109971
#	123962
#	139573
#	159489
#	175659
#	192039
#	209721
#	225613
#	239353
#	258193
#	279362
#
# Disc length: 3879 seconds
#
# Revision: 0
# Processed by: cddbd v1.5.2PL0 Copyright (c) Steve Scherf et al.
# Submitted via: dBpowerAMP V4.0
#
DISCID=f10f2412
DTITLE=Lobo - A  Simple Man
DYEAR=1900
DGENRE=Pop
TTITLE0=Me And You Do named Boo
TTITLE1=Don't Expect To Be Your Friend
TTITLE2=Stoney
TTITLE3=How Can I Tell Her
TTITLE4=A Simple Man
TTITLE5=It Sure Took A Long Long Time
TTITLE6=There Ain't No Way
TTITLE7=Don't Tell Me Good Night
TTITLE8=Rock And Roll Days
TTITLE9=Medley
TTITLE10=It Don't Matter Anymore
TTITLE11=Faithful
TTITLE12=Backbay
TTITLE13=Dream Lover
TTITLE14=Let It Be Me
TTITLE15=I'd Love You To Want Me
TTITLE16=Wll You Still Love Me Tomorrow
TTITLE17=It's All In The Game
EXTD=
EXTT0=
EXTT1=
EXTT2=
EXTT3=
EXTT4=
EXTT5=
EXTT6=
EXTT7=
EXTT8=
EXTT9=
EXTT10=
EXTT11=
EXTT12=
EXTT13=
EXTT14=
EXTT15=
EXTT16=
EXTT17=
PLAYORDER=
